<?xml version="1.0" standalone="no"?>
<!DOCTYPE svg PUBLIC "-//W3C//DTD SVG 20010904//EN"
 "http://www.w3.org/TR/2001/REC-SVG-20010904/DTD/svg10.dtd">
<svg version="1.0" xmlns="http://www.w3.org/2000/svg"
 width="79.000000pt" height="79.000000pt" viewBox="0 0 79.000000 79.000000"
 preserveAspectRatio="xMidYMid meet">
<metadata>
Created by potrace 1.14, written by Peter Selinger 2001-2017
</metadata>
<g transform="translate(0.000000,79.000000) scale(0.100000,-0.100000)"
fill="#000000" stroke="none">
<path d="M92 741 c1 -3 -2 -28 -6 -56 -9 -58 -11 -72 -27 -185 -6 -47 -12 -96
-14 -110 -1 -14 -5 -43 -8 -65 -11 -74 -29 -210 -32 -242 -3 -29 -1 -32 25
-31 16 1 27 5 24 9 -2 4 -1 10 4 13 4 2 9 22 10 44 2 22 5 50 8 63 3 13 6 29
6 35 1 6 7 11 14 11 7 0 11 -4 8 -9 -3 -4 2 -8 11 -8 9 0 14 4 11 8 -2 4 6 8
19 8 13 0 22 -3 19 -7 -2 -4 0 -9 5 -11 5 -1 13 -34 16 -73 4 -38 9 -73 11
-77 6 -10 59 -3 58 8 -1 5 -5 36 -9 69 -6 62 -10 89 -25 190 -5 33 -12 83 -15
110 -4 28 -8 61 -10 75 -2 14 -9 61 -15 105 -19 137 -17 132 -55 132 -19 0
-33 -3 -33 -6z m47 -202 c1 -29 4 -56 7 -61 3 -4 7 -37 9 -73 3 -59 1 -65 -16
-65 -10 0 -22 0 -26 0 -12 -1 -13 33 -1 147 11 118 23 140 27 52z"/>
<path d="M264 742 c2 -4 7 -27 11 -52 4 -24 10 -51 15 -60 4 -8 8 -19 8 -25 1
-5 11 -52 23 -104 l22 -95 -22 -85 c-12 -47 -24 -97 -27 -111 -3 -14 -10 -43
-16 -65 -6 -22 -12 -52 -13 -67 -2 -25 1 -28 26 -28 16 0 29 6 30 13 0 6 2 19
4 27 2 8 15 62 28 120 15 64 26 97 30 85 3 -11 17 -70 32 -131 26 -108 27
-111 55 -112 36 -1 35 7 -13 193 -21 77 -37 149 -37 160 0 11 18 88 39 172 21
84 35 156 32 160 -3 4 -16 9 -28 11 -16 2 -24 -3 -28 -20 -3 -13 -16 -68 -29
-122 -12 -55 -25 -96 -28 -90 -3 5 -16 58 -29 118 -22 106 -40 137 -60 105 -6
-10 -9 -10 -9 -1 0 6 -5 12 -11 12 -5 0 -8 -3 -5 -8z"/>
<path d="M540 400 c0 -221 3 -350 9 -350 6 0 10 130 11 350 0 221 -3 350 -9
350 -6 0 -10 -130 -11 -350z"/>
<path d="M602 723 c3 -25 7 -28 38 -28 19 0 37 -3 40 -7 3 -4 5 -147 5 -318 0
-171 3 -314 7 -316 11 -7 10 -23 12 318 0 168 5 310 9 315 5 4 23 8 40 8 25 0
33 5 35 23 4 27 -22 39 -45 21 -9 -8 -14 -9 -10 -3 9 16 -72 17 -91 1 -13 -9
-14 -9 -8 1 5 8 0 12 -14 12 -17 0 -21 -5 -18 -27z"/>
</g>
</svg>
